<?xml version="1.0" standalone="no"?><!DOCTYPE svg PUBLIC "-//W3C//DTD SVG 1.1//EN" "http://www.w3.org/Graphics/SVG/1.1/DTD/svg11.dtd"><svg t="1559456734075" class="icon" style="" viewBox="0 0 1024 1024" version="1.1" xmlns="http://www.w3.org/2000/svg" p-id="2048" xmlns:xlink="http://www.w3.org/1999/xlink" width="200" height="200"><defs><style type="text/css"></style></defs><path d="M832 128H256c-35.2 0-64 28.8-64 64v64c0 19.2 12.8 32 32 32s32-12.8 32-32V192h576v640H256v-64c0-19.2-12.8-32-32-32s-32 12.8-32 32v64c0 35.2 28.8 64 64 64h576c35.2 0 64-28.8 64-64V192c0-35.2-28.8-64-64-64z" p-id="2049"></path><path d="M384 640v96c0 19.2 12.8 32 32 32h320c19.2 0 32-12.8 32-32v-96c0-73.6-41.6-134.4-99.2-169.6 22.4-22.4 35.2-51.2 35.2-86.4 0-70.4-57.6-128-128-128s-128 57.6-128 128c0 35.2 12.8 64 35.2 86.4-57.6 35.2-99.2 96-99.2 169.6z m128-256c0-35.2 28.8-64 64-64s64 28.8 64 64-28.8 64-64 64-64-28.8-64-64z m-64 256c0-70.4 57.6-128 128-128s128 57.6 128 128v64h-256v-64zM160 384h128c19.2 0 32-12.8 32-32s-12.8-32-32-32H160c-19.2 0-32 12.8-32 32s12.8 32 32 32zM160 544h128c19.2 0 32-12.8 32-32s-12.8-32-32-32H160c-19.2 0-32 12.8-32 32s12.8 32 32 32zM320 672c0-19.2-12.8-32-32-32H160c-19.2 0-32 12.8-32 32s12.8 32 32 32h128c19.2 0 32-12.8 32-32z" p-id="2050"></path></svg>