<?xml version="1.0" standalone="no"?><!DOCTYPE svg PUBLIC "-//W3C//DTD SVG 1.1//EN" "http://www.w3.org/Graphics/SVG/1.1/DTD/svg11.dtd"><svg t="1559456849666" class="icon" style="" viewBox="0 0 1024 1024" version="1.1" xmlns="http://www.w3.org/2000/svg" p-id="2469" xmlns:xlink="http://www.w3.org/1999/xlink" width="200" height="200"><defs><style type="text/css"></style></defs><path d="M871.241874 744.17999" p-id="2470"></path><path d="M760.261247 908.59255c-19.587104 0-35.521005-15.937994-35.521005-35.525098l0-75.469855-75.469855-0.064468c-19.59222-0.017396-35.512818-15.96767-35.495422-35.55989 0.017396-19.570731 15.954367-35.491329 35.525098-35.491329l75.44018 0.064468 0-75.40641c0-19.587104 15.933901-35.525098 35.521005-35.525098s35.525098 15.937994 35.525098 35.525098l0 75.469855 75.473949 0.064468c9.488095 0.008186 18.408255 3.709485 25.109887 10.42442s10.389628 15.638165 10.381441 25.131377c-0.017396 19.570731-15.950274 35.491329-35.521005 35.491329l-75.444273-0.064468 0 75.410504C795.787368 892.654556 779.849374 908.59255 760.261247 908.59255z" p-id="2471"></path><path d="M318.78137 363.469152" p-id="2472"></path><path d="M150.740166 907.703297c-19.587104 0-35.525098-15.937994-35.525098-35.525098 0-82.530668 25.473161-161.415296 73.661673-228.123604 23.190165-32.102139 51.018977-60.412928 82.70156-84.146469 16.83134-12.608156 34.692127-23.853267 53.322439-33.580816-38.623669-45.479821-59.660798-102.549607-59.660798-162.860205 0-67.319222 26.211988-130.608663 73.816193-178.211844C386.66034 137.65208 449.949782 111.439068 517.269004 111.439068c67.311035 0 130.600477 26.211988 178.207751 73.812099 47.603181 47.608298 73.816193 110.896716 73.816193 178.215938 0 64.357773-23.959691 125.031645-67.648726 171.835623 13.202697 7.714705 25.972535 16.21531 38.149878 25.400506 7.573489 5.705955 12.471033 14.031575 13.788028 23.429619 1.315972 9.399067-1.107217 18.745946-6.821359 26.319435-6.684236 8.851599-17.288758 14.133905-28.375258 14.133905-7.769964 0-15.160281-2.474354-21.373797-7.15905-17.587564-13.271258-36.542264-24.699542-56.446593-34.050514-37.427424 21.045315-79.850629 32.123628-123.296117 32.123628-47.702442 0-93.693916-13.198603-133.61309-38.252209-118.432343 48.843428-197.393719 166.245302-197.393719 294.930149C186.261171 891.765303 170.328293 907.703297 150.740166 907.703297zM517.26491 182.486194c-99.79282 0-180.977841 81.18809-180.977841 180.981934 0 99.79282 81.183997 180.981934 180.977841 180.981934s180.977841-81.18809 180.977841-180.981934C698.241728 263.674285 617.057731 182.486194 517.26491 182.486194z" p-id="2473"></path></svg>