<?xml version="1.0" standalone="no"?><!DOCTYPE svg PUBLIC "-//W3C//DTD SVG 1.1//EN" "http://www.w3.org/Graphics/SVG/1.1/DTD/svg11.dtd"><svg t="1559456836470" class="icon" style="" viewBox="0 0 1024 1024" version="1.1" xmlns="http://www.w3.org/2000/svg" p-id="2352" xmlns:xlink="http://www.w3.org/1999/xlink" width="200" height="200"><defs><style type="text/css"></style></defs><path d="M758.07162 618.280083c13.857477 11.052183 36.06324 5.509192 47.183021-11.052183 5.542991-8.280688 5.542991-16.561375 5.542991-24.842063-2.771495-8.280688-8.314486-16.561375-13.891276-22.070568-19.434267-11.052183-38.868534-24.842063-61.074297-33.122751 27.748754-27.613559 49.954516-57.964814 63.845792-93.85906 16.662772-38.631943 24.977258-80.035382 24.977258-124.210316 0-171.122947-138.777566-309.123142-310.914475-309.123142-172.10311 0-308.10918 140.771691-308.10918 311.894638 0 82.806877 33.325543 160.070763 91.594546 218.035577-180.417596 82.806877-297.023199 262.210511-297.023199 460.947017 0 19.332871 13.891276 33.122751 33.291744 33.122751s33.291744-13.823679 33.291744-33.122751c0-184.912826 116.571804-350.526581 288.708712-414.000587 97.171335 57.964814 222.057626 55.193319 316.457466 0C702.540314 587.928828 733.060563 601.718708 758.07162 618.280083L758.07162 618.280083 758.07162 618.280083zM755.266326 311.928436c0 33.122751-5.542991 66.245502-19.434267 96.596757-11.119781 27.613559-30.520249 52.455622-52.726012 74.526189-44.411525 44.174934-105.485822 69.016997-169.331614 69.016997-133.234575 0-241.491893-107.64894-241.491893-240.139944 0-132.491003 108.257317-240.139944 241.491893-240.139944S755.266326 179.437433 755.266326 311.928436L755.266326 311.928436 755.266326 311.928436zM1016.192486 833.577964l-127.691584-126.948012c-13.891276-13.78988-38.868534-13.78988-52.75981 0-5.542991 5.509192-11.085982 16.561375-11.085982 24.842063 0 11.052183 2.771495 19.332871 11.085982 24.842063l66.617288 66.245502-230.405911 0c-19.434267 0-36.097039 16.561375-36.097039 35.894246 0 19.299072 16.662772 35.860448 36.097039 35.860448l230.405911 0-66.617288 66.245502c-5.542991 5.509192-11.085982 16.561375-11.085982 24.842063 0 11.018384 2.771495 19.332871 11.085982 24.842063 5.542991 8.280688 16.662772 11.052183 24.977258 11.052183s19.434267-2.771495 24.977258-11.052183l127.691584-126.948012c2.771495-2.771495 5.542991-8.280688 8.314486-11.052183 2.771495-8.280688 2.771495-19.332871 0-27.57976C1021.735477 841.858651 1018.963981 836.349459 1016.192486 833.577964L1016.192486 833.577964 1016.192486 833.577964z" p-id="2353"></path></svg>