<?xml version="1.0" standalone="no"?><!DOCTYPE svg PUBLIC "-//W3C//DTD SVG 1.1//EN" "http://www.w3.org/Graphics/SVG/1.1/DTD/svg11.dtd"><svg t="1557682840953" class="icon" style="" viewBox="0 0 1024 1024" version="1.1" xmlns="http://www.w3.org/2000/svg" p-id="5461" xmlns:xlink="http://www.w3.org/1999/xlink" width="200" height="200"><defs><style type="text/css"></style></defs><path d="M744.066403 402.066215l133.080971-64.10297 44.36237 45.328371-133.087111 64.10911L744.066403 402.066215zM655.353942 311.397193l177.443341-181.325765 44.350091 45.328371L699.704033 356.737844 655.353942 311.397193zM566.636365 220.74045l62.727647-136.016837 44.36851 45.347814-62.753229 135.997394L566.636365 220.74045zM633.918747 784.631284l35.18229 42.852994c25.440415 25.926486 66.476017 25.798573 91.711771-0.352017l68.849064-70.826092c25.235754-26.086122 25.037233-68.529793-0.37146-94.328365l-35.260062-42.865273c-18.007119-18.333554-43.933605-27.711132-66.578348-19.887956l-71.433936-73.960479c50.560536-52.185546 132.837424-52.42193 183.596482-0.594541l81.34261 89.8821c50.823526 51.935859 51.072189 136.343271 0.531096 188.593286L807.069319 921.460626C756.585531 973.525422 674.352645 973.82525 623.453395 921.946696l-81.317027-89.889263c-50.759057-52.000328-50.989301-136.343271-0.588401-188.522678l71.65804 72.496128C607.333252 738.330772 616.730273 767.072373 633.918747 784.631284zM411.68427 304.398802c7.228635-22.785959-1.63729-48.885384-19.280112-66.910922l-26.444279-43.358507c-25.113981-25.497721-65.420989-25.37697-90.182952 0.306992l-67.449181 69.668733c-24.794709 25.670659-24.685215 66.969251 0.261966 92.524277l26.444279 43.428092 52.863998 37.485753c16.765849 17.086144-8.546653-11.034311 12.800537-17.047258l69.75162 71.606875c-49.621141 51.284013-130.297578 51.514257-180.231851 0.537236l-71.606875-89.479941c-50.01716-50.977022-50.215682-133.822868-0.556679-185.036273L230.358505 101.898785c49.710169-51.16224 130.451074-51.520397 180.264597-0.601704l71.792093 89.651856c49.863664 50.861388 50.036603 133.829008 0.460488 184.997388L411.68427 304.398802zM242.205321 620.954481l-133.080971 64.10911-44.36237-45.334511 133.087111-64.10911L242.205321 620.954481zM330.917782 699.943486 153.48058 881.288694l-44.35623-45.328371 177.443341-181.345208L330.917782 699.943486zM419.635359 790.618649l-59.58098 136.003534-44.342927-45.334511 59.548234-136.010697L419.635359 790.618649z" p-id="5462"></path></svg>