<?xml version="1.0" standalone="no"?><!DOCTYPE svg PUBLIC "-//W3C//DTD SVG 1.1//EN" "http://www.w3.org/Graphics/SVG/1.1/DTD/svg11.dtd"><svg t="1557682825406" class="icon" style="" viewBox="0 0 1024 1024" version="1.1" xmlns="http://www.w3.org/2000/svg" p-id="4993" xmlns:xlink="http://www.w3.org/1999/xlink" width="200" height="200"><defs><style type="text/css"></style></defs><path d="M274.496771 436.788018l-80.757279-80.648808c-25.4046-25.468045-25.51921-66.624397-0.268106-92.199888l68.671009-69.435419c25.244964-25.594935 66.292845-25.716708 91.869361-0.299829l80.751139 80.573083c17.971303 17.977443 26.997887 43.974537 19.666922 66.693981l72.495104 71.290673c50.514487-50.980091 50.330292-133.669372-0.503467-184.349635L399.471111 101.68389c-50.711985-50.744731-132.929522-50.387597-183.571922 0.599657L101.526301 218.10339c-50.565652 51.0507-50.380434 133.604904 0.560772 184.41308L228.877781 529.052374c50.827619 50.808176 133.01241 50.571792 183.54634-0.529049l-71.028707-71.361281C319.650157 463.148385 291.581891 453.80867 274.496771 436.788018L274.496771 436.788018zM919.223678 613.175307 796.832164 490.955708c-51.706639-51.662637-135.530766-51.413973-187.008184 0.586354l72.750931 73.706699c23.064298-7.80271 49.475831 1.549286 67.816548 19.825534l75.504648 75.370595c25.882484 25.716708 26.060539 67.994604 0.363274 94.005001l-70.111824 70.576405c-25.697265 26.066679-67.51058 26.188452-93.411483 0.363274l-75.41562-75.376735c-17.505699-17.486256-27.093055-46.1419-21.107737-68.357877l-72.966848-72.253604c-51.337225 52.006468-51.108005 136.053676 0.599657 187.888228L616.237039 919.515321c51.846832 51.700499 135.607514 51.40067 186.994881-0.477884l116.533087-117.916597C971.236286 749.057067 971.007065 664.946414 919.223678 613.175307L919.223678 613.175307zM373.766682 371.355773c-17.302061 17.74106-17.193591 46.3834 0.23536 64.11218L583.118757 648.288013c17.480116 17.61417 45.536103 17.486256 62.671365-0.242524 17.250896-17.862833 17.059538-46.499034-0.305969-64.11218L436.362322 371.113249C418.990676 353.563548 390.998135 353.690438 373.766682 371.355773L373.766682 371.355773z" p-id="4994"></path></svg>