<?xml version="1.0" standalone="no"?><!DOCTYPE svg PUBLIC "-//W3C//DTD SVG 1.1//EN" "http://www.w3.org/Graphics/SVG/1.1/DTD/svg11.dtd"><svg t="1541742194401" class="icon" style="" viewBox="0 0 1024 1024" version="1.1" xmlns="http://www.w3.org/2000/svg" p-id="5583" xmlns:xlink="http://www.w3.org/1999/xlink" width="200" height="200"><defs><style type="text/css"></style></defs><path d="M976.16 827.872l0.672-0.384-346.496-347.904 157.28-157.28 140.48-90.528 55.84-100.416-64.896-64.992-100.416 55.936-90.624 140.448-157.088 157.152-155.872-156.512-0.704-206.752-211.328-56.64-22.624 22.464 112.416 112.288-109.6 109.824-112.32-112.224-22.624 22.368 56.736 211.36 201.088 0.512-1.216 1.312 158.816 159.456-58.72 58.752-38.528-38.464-59.424 59.456 18.464 18.368c-53.376 20.448-200.672 167.776-221.152 221.088l-18.368-18.4-59.328 59.456 136.384 136.384 59.456-59.488-18.56-18.464c53.376-20.288 200.768-167.744 221.152-221.024l18.4 18.496 59.424-59.488-38.464-38.496 58.56-58.592 346.304 347.68 0.608-0.448c29.536 28.576 76.64 28.608 105.504-0.576 29.184-29.056 29.28-76.064 0.704-105.728zM947.616 905.632c-12.992 12.992-34.016 13.152-47.136 0-12.8-12.992-12.992-33.888-0.096-47.072 13.216-12.992 34.144-12.992 47.232 0 13.152 12.96 13.152 33.952 0 47.072z" p-id="5584"></path></svg>