<?xml version="1.0" standalone="no"?><!DOCTYPE svg PUBLIC "-//W3C//DTD SVG 1.1//EN" "http://www.w3.org/Graphics/SVG/1.1/DTD/svg11.dtd"><svg t="1567744684103" class="icon" viewBox="0 0 1024 1024" version="1.1" xmlns="http://www.w3.org/2000/svg" width="16" height="16" xmlns:xlink="http://www.w3.org/1999/xlink"><defs><style type="text/css"></style></defs><path d="M887.466667 0H136.533333C98.986667 0 68.266667 30.72 68.266667 68.266667v887.466666c0 37.546667 30.72 68.266667 68.266666 68.266667h614.4c37.546667 0 68.266667-30.72 68.266667-68.266667V170.666667a34.133333 34.133333 0 0 0-34.133333-34.133334H172.7488c-17.032533 0-32.904533-11.52-35.720533-28.296533A34.218667 34.218667 0 0 1 170.666667 68.266667h699.733333a17.066667 17.066667 0 0 1 17.066667 17.066666v731.784534c0 17.015467 11.52 32.887467 28.296533 35.720533A34.218667 34.218667 0 0 0 955.733333 819.2V68.266667a68.266667 68.266667 0 0 0-68.266666-68.266667zM444.672 377.719467c70.331733 0 110.660267 31.880533 110.660267 112.5376s-62.839467 144.4352-110.660267 144.4352c-47.837867 0-112.5376-64.324267-112.5376-144.4352 0-81.595733 42.205867-112.5376 112.5376-112.5376zM224.034133 739.9424c5.358933-15.189333 11.793067-30.173867 18.039467-36.829867 11.6224-12.356267 78.3872-47.7696 107.895467-63.112533a16.042667 16.042667 0 0 1 21.504 6.6048l33.706666 62.3616c4.7616 8.8064 17.988267 6.382933 19.336534-3.5328a10.222933 10.222933 0 0 0-1.092267-6.178133l-7.441067-14.199467a10.3424 10.3424 0 0 1 1.245867-11.451733l14.216533-16.878934a16.042667 16.042667 0 0 1 24.541867-0.017066l14.250667 16.896a10.3424 10.3424 0 0 1 1.245866 11.451733l-7.441066 14.199467a10.3424 10.3424 0 0 0-1.092267 6.178133c1.348267 9.915733 14.574933 12.322133 19.336533 3.5328l33.706667-62.3616a16.0256 16.0256 0 0 1 21.504-6.6048c29.508267 15.342933 96.273067 50.756267 107.895467 63.112533 6.263467 6.656 12.680533 21.640533 18.039466 36.829867a32.119467 32.119467 0 0 1-30.225066 42.871467H254.2592a32.119467 32.119467 0 0 1-30.225067-42.871467z"></path></svg>
